<svg version="1.2" xmlns="http://www.w3.org/2000/svg" viewBox="0 0 328 319" width="500" height="486">
	<title>hexagon-icon-svg</title>
	<g id="Layer 1">
		<path fill-rule="evenodd" fill="#006a64" class="s0" d="m284.5 69.3c2.8 1.6 5.2 3.5 7.5 5.7 2.2 2.2 4.1 4.7 5.6 7.4 1.6 2.7 2.8 5.6 3.6 8.6 0.8 3.1 1.3 6.2 1.3 9.3l0.2 118.5c0 3.1-0.4 6.2-1.3 9.3-0.8 3-2 5.9-3.5 8.6-1.6 2.8-3.5 5.3-5.8 7.5-2.2 2.2-4.7 4.1-7.4 5.7l-102.7 59.1c-2.7 1.5-5.6 2.7-8.6 3.5-3.1 0.8-6.2 1.2-9.3 1.2-3.1 0-6.2-0.4-9.3-1.2-3-0.8-5.9-2-8.6-3.6l-103.1-59.5c-2.7-1.6-5.2-3.5-7.4-5.7-2.2-2.2-4.1-4.7-5.7-7.4-1.6-2.7-2.8-5.6-3.6-8.6-0.8-3-1.2-6.1-1.2-9.3l-0.2-118.4c0-3.2 0.4-6.3 1.2-9.3 0.8-3.1 2-6 3.6-8.7 1.6-2.7 3.5-5.2 5.7-7.5 2.2-2.2 4.7-4.1 7.5-5.7l102.7-59c2.7-1.6 5.6-2.8 8.6-3.6 3-0.8 6.1-1.2 9.3-1.2 3.1 0 6.2 0.4 9.2 1.2 3 0.8 5.9 2 8.6 3.6z"/>
		<path id="Form 1" fill-rule="evenodd" fill="#ffffff" class="s1" d="m161 77h5c11 0 20 9 20 20v124.4c0 11.1-9 20-20 20h-5c-11 0-20-8.9-20-20v-124.4c0-11 9-20 20-20z"/>
		<path id="Form 3" fill-rule="evenodd" fill="#ffffff" class="s1" d="m221 117h5c11 0 20 9 20 20v83c0 11-9 20-20 20h-5c-11 0-20-9-20-20v-83c0-11 9-20 20-20z"/>
		<path id="Form 2" fill-rule="evenodd" fill="#ffffff" class="s1" d="m101 152h5c11 0 20 9 20 20v48c0 11-9 20-20 20h-5c-11 0-20-9-20-20v-48c0-11 9-20 20-20z"/>
	</g>
</svg>